<svg xmlns="http://www.w3.org/2000/svg" width="20" height="20" viewBox="0 0 20 20">
  <defs>
    <style>
      .cls-1 {
        fill: #e2d6c6;
        fill-rule: evenodd;
      }
    </style>
  </defs>
  <g id="Dribbble-Light-Preview" transform="translate(-60 -959)">
    <g id="icons" transform="translate(56 160)">
      <path id="send_round-_1569_" data-name="send_round-[#1569]" class="cls-1" d="M15.732,809.137l5.815-5.815a.5.5,0,0,1,.859.341l.038,1.366a1.011,1.011,0,0,0,1.028.971H23.25c.552,0,.75-.476.75-1.028V801a2.006,2.006,0,0,0-2-2H18.483c-.553,0-1.483.425-1.483.977v0a1.228,1.228,0,0,0,1.2,1.029l1.534.041a.5.5,0,0,1,.343.857l-5.787,5.816a1,1,0,0,0,.015,1.414,1.017,1.017,0,0,0,1.428,0M24,812.011v5c0,1.1-.45,1.985-1.552,1.985H6.44c-1.1,0-2.44-.883-2.44-1.985V801.007C4,799.9,5.338,799,6.44,799h5a1,1,0,1,1,0,2h-4C6.892,801,6,801.458,6,802.011v13C6,816.117,7.338,817,8.44,817h13c.552,0,.556-.437.556-.989v-4a1,1,0,0,1,2,0"/>
    </g>
  </g>
</svg>
